<svg width="232" height="277" viewBox="0 0 232 277" fill="none" xmlns="http://www.w3.org/2000/svg">
<path d="M221.153 60.4681C221.463 56.8353 221.561 49.4678 221.87 45.8349C218.7 45.3643 215.503 45.0811 212.3 44.988C211.59 40.0339 209.346 35.0528 206.344 31.7472C208.954 29.6721 210.951 27.8826 213.483 25.8456C211.396 22.8942 208.168 17.956 204.006 13.1195C200.525 15.4691 199.457 16.0819 196.878 18.4144C195.005 15.338 194.338 14.3844 190.269 12.1733C187.629 10.7381 185.435 10.2257 181.621 10.1694C181.984 6.83679 181.888 5.56945 182.352 1.31027C175.502 1.20854 168.969 1.52599 165.883 0.91806C165.336 3.98589 165.482 5.9825 165.223 9.81637C163.586 9.79186 160.525 10.0468 157.844 10.6768C154.549 11.4514 152.095 13.2409 150.547 14.7423C148.148 12.2297 146.378 10.705 144.449 9.41926C137.059 15.7706 132.007 20.1511 132.226 20.4698C133.511 22.3365 136.081 24.9999 138.19 26.8972C136.041 29.2247 134.242 32.17 133.827 34.6311C133.411 37.0923 133.141 37.498 133.131 39.9946C130.27 39.7066 125.258 40.0706 121.956 40.1638C122.039 45.5175 122.124 50.8712 122.207 56.2249C122.21 56.3867 122.216 56.5595 122.308 56.6931C122.445 56.8892 122.715 56.9272 122.953 56.9492C126.483 57.2618 129.227 56.7629 132.757 57.0755C132.776 61.8029 135.266 66.4187 137.821 70.5406C135.954 72.612 133.162 75.3661 131.184 77.1494C135.425 80.9294 138.696 85.2731 142.937 89.0531C144.936 87.5455 148.719 84.5046 150.719 82.9958C152.522 85.6825 159.734 90.4307 165.966 88.3507C166.074 91.2997 165.065 97.6008 166.727 98.2627C170.604 99.8046 178.431 98.1793 182.603 98.145C183.734 94.837 182.246 91.6993 183.376 88.3912C187.547 87.4756 191.508 84.7841 195.698 81.0017C197.263 83.062 198.942 85.2621 200.885 87.1974C201.036 87.3482 201.216 87.5087 201.43 87.4977C201.595 87.4891 201.735 87.3788 201.863 87.2722C205.19 84.5132 208.444 81.666 211.622 78.7366C211.797 78.5749 211.983 78.3886 211.997 78.152C212.01 77.9093 211.837 77.701 211.676 77.5196C209.657 75.2668 207.639 73.0128 205.619 70.76C208.382 67.9655 210.267 64.1917 211.294 60.196C223.302 60.8223 221.073 61.3592 221.148 60.4681H221.153ZM197.835 53.7883C196.211 67.941 187.46 73.3217 181.37 74.6981C175.606 76.001 166.902 76.4888 159.943 73.1684C154.611 70.624 151.568 66.8955 148.882 61.635C145.972 55.9344 144.177 49.1932 146.263 43.1421C147.953 38.2383 151.811 32.9838 156.023 29.9552C160.958 26.4094 166.708 25.0097 172.761 24.4606C178.814 23.9115 186.644 24.7903 190.79 30.4712C196.978 37.4612 198.694 46.3056 197.834 53.787L197.835 53.7883Z" fill="#E3E3FF" stroke="#010101" stroke-width="1.5" stroke-linecap="round" stroke-linejoin="round"/>
<path d="M14.2633 83.8048C9.97488 82.8732 5.20942 84.7841 2.75433 88.4194C0.299246 92.0547 0.310282 97.1878 2.78008 100.813C3.55389 101.949 4.55088 102.946 5.74041 103.634C7.46829 104.632 9.51256 104.938 11.5078 104.996C13.1167 105.044 14.7305 104.944 16.3211 104.697C17.3683 104.536 18.4193 104.304 19.3611 103.819C21.6506 102.637 22.9824 100.041 23.1381 97.4709C23.2939 94.9007 22.4232 92.3623 21.2079 90.0924C19.8369 87.5295 17.789 84.5708 14.2645 83.8048H14.2633Z" fill="#E3E3FF" stroke="#010101" stroke-width="1.5" stroke-linecap="round" stroke-linejoin="round"/>
<path d="M14.2633 83.8048C9.97488 82.8732 5.20942 84.7841 2.75433 88.4194C0.299246 92.0547 0.310282 97.1878 2.78008 100.813C3.55389 101.949 4.55088 102.946 5.74041 103.634C7.46829 104.632 9.51256 104.938 11.5078 104.996C13.1167 105.044 14.7305 104.944 16.3211 104.697C17.3683 104.536 18.4193 104.304 19.3611 103.819C21.6506 102.637 22.9824 100.041 23.1381 97.4709C23.2939 94.9007 22.4232 92.3623 21.2079 90.0924C19.8369 87.5295 17.789 84.5708 14.2645 83.8048H14.2633Z" fill="#C12314" stroke="#010101" stroke-width="1.5" stroke-linecap="round" stroke-linejoin="round"/>
<path d="M14.6263 191.89C10.3379 190.958 5.57239 192.869 3.11731 196.505C0.662222 200.14 0.673259 205.273 3.14306 208.898C3.91686 210.035 4.91386 211.031 6.10339 211.719C7.83126 212.718 9.87553 213.023 11.8707 213.082C13.4797 213.129 15.0935 213.029 16.684 212.783C17.7313 212.621 18.7823 212.389 19.7241 211.904C22.0136 210.722 23.3454 208.126 23.5011 205.556C23.6569 202.986 22.7862 200.448 21.5709 198.178C20.1999 195.615 18.1519 192.656 14.6275 191.89H14.6263Z" fill="#C12314" stroke="#010101" stroke-width="1.5" stroke-linecap="round" stroke-linejoin="round"/>
<path d="M222.129 126.867C217.84 125.936 213.075 127.847 210.62 131.482C208.165 135.117 208.176 140.25 210.645 143.876C211.419 145.012 212.416 146.008 213.606 146.696C215.334 147.695 217.378 148 219.373 148.059C220.982 148.107 222.596 148.006 224.186 147.76C225.234 147.598 226.285 147.366 227.227 146.881C229.516 145.7 230.848 143.104 231.004 140.533C231.159 137.963 230.289 135.425 229.073 133.155C227.702 130.592 225.654 127.633 222.13 126.867H222.129Z" fill="#39BFBF" stroke="#010101" stroke-width="1.5" stroke-linecap="round" stroke-linejoin="round"/>
<path d="M44.9408 79.0087C45.2118 71.1228 45.7612 62.5174 51.0736 56.6796C53.5471 53.9611 56.8422 52.1262 60.2121 50.6591C76.1408 43.7268 129.884 46.6549 150.681 47.9982C161.61 48.7042 169.964 55.6231 171.922 69.9866C175.783 98.2909 172.237 196.636 166.889 256.39C166.504 260.691 165.997 265.275 163.253 268.61C160.65 271.775 156.504 273.207 152.492 274.051C146.092 275.398 139.512 275.62 132.972 275.712C106.507 276.082 92.6666 274.992 66.4664 271.243C61.6383 270.552 56.5773 269.689 52.7733 266.639C46.768 261.825 45.7343 253.239 45.2082 245.563C41.9964 198.762 44.6392 77.9228 44.9408 79.0087Z" fill="#010101" stroke="#010101" stroke-width="1.5" stroke-linecap="round" stroke-linejoin="round"/>
<path d="M52.4851 86.8297C52.7267 79.803 52.9352 70.521 57.6675 65.3193C59.8712 62.8974 62.807 61.2624 65.8102 59.9546C80.0024 53.7785 126.51 56.3193 145.041 57.5167C150.91 57.8955 158.928 58.186 162.681 74.0485C168.038 96.7037 163.431 176.828 158.736 229.311C158.392 233.143 157.941 237.227 155.496 240.199C153.175 243.02 149.482 244.296 145.907 245.047C140.203 246.247 134.342 246.445 128.514 246.526C104.933 246.856 93.9799 245.951 70.6346 242.61C66.3327 241.995 61.8235 241.225 58.434 238.508C53.0823 234.218 52.1626 226.568 51.6929 219.728C48.8307 178.028 52.2165 85.8627 52.4851 86.8297Z" fill="white" stroke="#010101" stroke-width="1.5" stroke-linecap="round" stroke-linejoin="round"/>
<path d="M110.362 253.983C107.518 251.844 103.186 251.786 100.673 254.304C98.1224 256.861 97.9765 261.315 100.083 264.248C100.723 265.139 101.562 265.919 102.585 266.318C105.401 267.419 110.372 267.249 111.855 263.737C112.207 262.905 114.274 256.925 110.362 253.983Z" fill="white" stroke="#010101" stroke-width="1.5" stroke-linecap="round" stroke-linejoin="round"/>
<path d="M31.2784 113.684C32.2938 101.507 32.8285 89.2896 32.8812 77.071C32.8861 75.8575 33.8243 74.85 35.0359 74.7679C63.0388 72.8681 91.1447 72.4747 119.189 73.5888C120.492 73.6403 121.497 74.7606 121.413 76.061L119.65 103.229C119.572 104.445 118.563 105.391 117.345 105.394L48.7559 105.512C47.158 105.515 45.5233 105.524 44.0174 106.06C42.7163 106.524 41.5844 107.357 40.4733 108.178C35.703 111.706 31.146 115.266 31.2784 113.684Z" fill="#C12314" stroke="#010101" stroke-width="1.5" stroke-linecap="round" stroke-linejoin="round"/>
<path d="M198.84 118.788C168.488 118.201 138.13 118.275 107.967 119.219C106.764 119.257 105.798 120.209 105.726 121.411C105.181 130.355 105.837 141.378 105.842 150.471C105.842 151.713 106.801 152.742 108.042 152.792C131.744 153.744 161.361 152.642 185.063 153.685C185.428 153.701 185.778 153.801 186.096 153.979C189.712 156.014 193.197 158.363 197.357 161.262C198.003 161.713 198.905 161.303 198.984 160.52C200.515 145.463 199.952 136.159 201.111 121.292C201.214 119.963 200.174 118.813 198.84 118.788Z" fill="#39BFBF" stroke="#010101" stroke-width="1.5" stroke-linecap="round" stroke-linejoin="round"/>
<path d="M29.5726 228.629C30.5904 216.417 31.4476 182.445 31.4967 170.317C31.5016 169.086 32.5109 168.103 33.7421 168.122C65.4374 168.589 119.065 167.597 131.434 168.236C132.868 168.309 133.968 169.519 133.908 170.953L132.266 218.388C132.187 219.603 131.178 220.55 129.96 220.552L47.0513 220.459C45.4534 220.461 43.8187 220.47 42.3128 221.007C41.0117 221.47 39.8798 222.304 38.7688 223.125C33.9984 226.652 29.4414 230.213 29.5738 228.63L29.5726 228.629Z" fill="#C12314" stroke="#010101" stroke-width="1.5" stroke-linecap="round" stroke-linejoin="round"/>
<path d="M42.0026 84.2337C65.424 84.4727 88.8491 84.3955 112.268 84.0045L42.0026 84.2337Z" fill="#39BFBF"/>
<path d="M42.0026 84.2337C65.424 84.4727 88.8491 84.3955 112.268 84.0045" stroke="#010101" stroke-width="1.5" stroke-linecap="round" stroke-linejoin="round"/>
<path d="M41.42 94.7242C55.221 94.924 69.0269 94.7365 82.818 94.1616L41.42 94.7242Z" fill="#39BFBF"/>
<path d="M41.42 94.7242C55.221 94.924 69.0269 94.7365 82.818 94.1616" stroke="#010101" stroke-width="1.5" stroke-linecap="round" stroke-linejoin="round"/>
<path d="M116.487 128.315C139.432 128.494 162.379 128.448 185.323 128.174L116.487 128.315Z" fill="#39BFBF"/>
<path d="M116.487 128.315C139.432 128.494 162.379 128.448 185.323 128.174" stroke="#010101" stroke-width="1.5" stroke-linecap="round" stroke-linejoin="round"/>
<path d="M73.9272 205.187C79.0275 197.784 84.9653 188.663 89.3948 180.857C89.5738 180.54 90.0128 180.524 90.2225 180.821C96.3627 189.513 103.084 197.796 110.326 205.597C110.622 205.916 110.388 206.431 109.951 206.425C92.6936 206.197 84.9199 206.708 74.3123 205.961C73.9285 205.934 73.709 205.505 73.9272 205.188V205.187Z" fill="white" stroke="#010101" stroke-width="1.5" stroke-linecap="round" stroke-linejoin="round"/>
<path d="M83.4876 205.512C78.1764 199.866 71.2931 192.21 69.5358 190.25C69.3187 190.008 68.9386 190.038 68.7583 190.308C66.8698 193.131 58.0955 206.285 58.5468 206.291C65.0229 206.387 73.9824 206.231 83.1172 206.343C83.5563 206.348 83.788 205.831 83.4876 205.512Z" fill="#010101" stroke="#010101" stroke-width="1.5" stroke-linecap="round" stroke-linejoin="round"/>
<path d="M74.6655 180.754C74.3344 181.623 74.5416 182.662 75.1241 183.387C75.443 183.785 75.8685 184.089 76.3271 184.309C77.5498 184.899 79.128 184.861 80.1618 183.981C80.7541 183.477 81.1269 182.724 81.1723 181.949C81.2177 181.173 80.9344 180.383 80.4046 179.813C79.9521 179.326 79.3439 179.008 78.7184 178.78C78.2193 178.598 75.5766 178.359 74.6655 180.754Z" fill="white" stroke="#010101" stroke-width="1.5" stroke-linecap="round" stroke-linejoin="round"/>
<path d="M116.46 139.731C128.377 139.71 140.294 139.688 152.212 139.667L116.46 139.731Z" fill="#39BFBF"/>
<path d="M116.46 139.731C128.377 139.71 140.294 139.688 152.212 139.667" stroke="#010101" stroke-width="1.5" stroke-linecap="round" stroke-linejoin="round"/>
<path d="M115.821 178.471C115.918 173.972 116.18 169.476 116.609 164.996C116.8 162.996 117.068 160.888 118.292 159.292C119.516 157.696 122.029 156.916 123.578 158.198C124.684 159.113 124.928 160.692 125.02 162.125C125.262 165.925 124.962 169.761 124.134 173.478C123.989 174.124 123.821 174.786 123.43 175.32C123.039 175.855 122.372 176.239 121.722 176.109C120.792 175.923 120.354 174.867 120.132 173.946C119.213 170.128 119.34 166.064 120.499 162.312" stroke="#010101" stroke-width="1.5" stroke-linecap="round" stroke-linejoin="round"/>
</svg>
